<?xml version="1.0" encoding="UTF-8" standalone="no"?>
<svg
   xmlns:dc="http://purl.org/dc/elements/1.1/"
   xmlns:cc="http://creativecommons.org/ns#"
   xmlns:rdf="http://www.w3.org/1999/02/22-rdf-syntax-ns#"
   xmlns:svg="http://www.w3.org/2000/svg"
   xmlns="http://www.w3.org/2000/svg"
   viewBox="0 0 785.0769 425.51385"
   height="425.51385"
   width="785.0769"
   xml:space="preserve"
   id="svg2"
   version="1.1"><metadata
     id="metadata8"><rdf:RDF><cc:Work
         rdf:about=""><dc:format>image/svg+xml</dc:format><dc:type
           rdf:resource="http://purl.org/dc/dcmitype/StillImage" /></cc:Work></rdf:RDF></metadata><defs
     id="defs6"><clipPath
       id="clipPath14"
       clipPathUnits="userSpaceOnUse"><path
         id="path12"
         d="M 0,0 H 960 V 540 H 0 Z" /></clipPath><clipPath
       id="clipPath24"
       clipPathUnits="userSpaceOnUse"><path
         id="path22"
         d="M 0,1.206994e-5 H 959.76 V 540.00001 H 0 Z" /></clipPath><clipPath
       id="clipPath34"
       clipPathUnits="userSpaceOnUse"><path
         id="path32"
         d="M 0,0 H 960 V 540 H 0 Z" /></clipPath><clipPath
       id="clipPath44"
       clipPathUnits="userSpaceOnUse"><path
         id="path42"
         d="m 193.472,178.4119 h 547.5 V 448.475 h -547.5 z" /></clipPath></defs><g
     clip-path="url(#clipPath14)"
     transform="matrix(1.3333333,0,0,-1.3333333,-248.03693,618.95387)"
     id="g10"><g
       id="g16" /><g
       id="g18"><g
         clip-path="url(#clipPath24)"
         id="g20"><path
           id="path26"
           style="fill:#ffffff;fill-opacity:1;fill-rule:nonzero;stroke:none"
           d="M 0,1.206994e-5 H 959.76 V 540.00001 H 0 Z" /></g></g><g
       id="g28"><g
         clip-path="url(#clipPath34)"
         id="g30"><path
           id="path36"
           style="fill:#ffffff;fill-opacity:1;fill-rule:nonzero;stroke:none"
           d="M 0,1.40816e-5 H 960 V 540.00001 H 0 Z" /></g></g><g
       id="g38"><g
         clip-path="url(#clipPath44)"
         id="g40"><path
           id="path46"
           style="fill:#00b050;fill-opacity:1;fill-rule:nonzero;stroke:none"
           d="m 422.5188,179.3336 h 125.3535 v 52.07702 H 422.5188 Z" /><g
           transform="matrix(7.257616e-5,0,0,-7.257616e-5,422.5188,231.4106)"
           id="g48"><path
             id="path50"
             style="fill:none;stroke:#00b050;stroke-width:25400;stroke-linecap:butt;stroke-linejoin:round;stroke-miterlimit:10;stroke-dasharray:none;stroke-opacity:1"
             d="M 0,0 H 1727200 V 717550 H 0 Z" /></g><g
           transform="matrix(0.4608586,0,0,0.4608586,461.423,-71.37346)"
           id="g52"><text
             id="text56"
             style="font-variant:normal;font-weight:normal;font-size:36px;font-family:Tahoma;-inkscape-font-specification:Tahoma;writing-mode:lr-tb;fill:#ffffff;fill-opacity:1;fill-rule:nonzero;stroke:none"
             transform="matrix(1,0,0,-1,0,586)"><tspan
               id="tspan54"
               y="0"
               x="0 20.9988 40.017601 53.024399 73.015198 92.033997">Target</tspan></text>
</g><path
           id="path58"
           style="fill:#4f81bd;fill-opacity:1;fill-rule:nonzero;stroke:none"
           d="m 422.5188,314.826 h 125.3535 v 52.53788 H 422.5188 Z" /><g
           transform="matrix(7.257616e-5,0,0,-7.257616e-5,422.5188,367.3639)"
           id="g60"><path
             id="path62"
             style="fill:none;stroke:#385d8a;stroke-width:25400;stroke-linecap:butt;stroke-linejoin:round;stroke-miterlimit:10;stroke-dasharray:none;stroke-opacity:1"
             d="M 0,0 H 1727200 V 723900 H 0 Z" /></g><g
           transform="matrix(0.4608586,0,0,0.4608586,449.9015,64.57983)"
           id="g64"><text
             id="text68"
             style="font-variant:normal;font-weight:normal;font-size:36px;font-family:Tahoma;-inkscape-font-specification:Tahoma;writing-mode:lr-tb;fill:#ffffff;fill-opacity:1;fill-rule:nonzero;stroke:none"
             transform="matrix(1,0,0,-1,0,586)"><tspan
               id="tspan66"
               y="0"
               x="0 21.499201 41.018398 61.0056 73.000801 86.003998 105.5232 113.7744 122.0256 141.0408">Controller</tspan></text>
</g><path
           id="path70"
           style="fill:#00b050;fill-opacity:1;fill-rule:nonzero;stroke:none"
           d="m 364.9114,206.5243 55.098,-1e-4 v -2.7652 l -55.098,1e-4 z m 47.4992,4.6506 10.3426,-6.0333 -10.3426,-6.0332 c -0.6596,-0.3848 -1.5062,-0.162 -1.8909,0.4976 -0.3848,0.6595 -0.162,1.5061 0.4976,1.8909 l 8.2954,4.839 v -2.3885 l -8.2954,4.839 c -0.6596,0.3848 -0.8824,1.2313 -0.4976,1.8909 0.3847,0.6596 1.2313,0.8823 1.8909,0.4976 z" /><path
           id="path72"
           style="fill:#00b050;fill-opacity:1;fill-rule:nonzero;stroke:none"
           d="m 547.8723,206.5243 55.0979,-1e-4 v -2.7652 l -55.0979,1e-4 z m 47.4991,4.6506 10.3427,-6.0333 -10.3427,-6.0332 c -0.6596,-0.3848 -1.5062,-0.162 -1.8909,0.4976 -0.3847,0.6595 -0.1619,1.5061 0.4976,1.8909 l 8.2955,4.839 v -2.3885 l -8.2955,4.839 c -0.6595,0.3848 -0.8823,1.2313 -0.4976,1.8909 0.3847,0.6596 1.2313,0.8823 1.8909,0.4976 z" /><path
           id="path74"
           style="fill:#4a7ebb;fill-opacity:1;fill-rule:nonzero;stroke:none"
           d="m 455.2397,315.7478 10e-5,-81.7073 h -2.7651 l -10e-5,81.7073 z m 4.6507,-74.1085 -6.0332,-10.3428 -6.0333,10.3427 c -0.3847,0.6596 -0.1619,1.5062 0.4977,1.8909 0.6595,0.3848 1.5061,0.162 1.8908,-0.4976 l 4.839,-8.2954 h -2.3884 l 4.839,8.2954 c 0.3847,0.6596 1.2313,0.8824 1.8909,0.4976 0.6596,-0.3847 0.8823,-1.2313 0.4975,-1.8908 z" /><path
           id="path76"
           style="fill:#4a7ebb;fill-opacity:1;fill-rule:nonzero;stroke:none"
           d="m 517.9165,308.8349 10e-5,-77.532 h -2.7652 l -10e-5,77.532 z m -5.5303,-1.3826 4.1477,8.2955 4.1477,-8.2955 z" /><path
           id="path78"
           style="fill:#4a7ebb;fill-opacity:1;fill-rule:nonzero;stroke:none"
           d="m 486.5781,419.4409 10e-5,-49.5231 h -2.7652 l -10e-5,49.5231 z m 4.6507,-41.9243 -6.0332,-10.3427 -6.0333,10.3427 c -0.3847,0.6595 -0.1619,1.5061 0.4977,1.8909 0.6595,0.3848 1.5061,0.162 1.8908,-0.4976 l 4.839,-8.2954 h -2.3885 l 4.8391,8.2954 c 0.3847,0.6596 1.2313,0.8824 1.8909,0.4976 0.6595,-0.3848 0.8823,-1.2313 0.4975,-1.8909 z" /><g
           transform="matrix(0.4608586,0,0,0.4608586,471.4791,156.2907)"
           id="g80"><text
             id="text84"
             style="font-variant:normal;font-weight:normal;font-size:36px;font-family:Tahoma;-inkscape-font-specification:Tahoma;writing-mode:lr-tb;fill:#000000;fill-opacity:1;fill-rule:nonzero;stroke:none"
             transform="matrix(1,0,0,-1,0,586)"><tspan
               id="tspan82"
               y="0"
               x="0 24.0012 43.502399 62.499599">Goal</tspan></text>
</g><g
           transform="matrix(0.4608586,0,0,0.4608586,384.791,-30.8179)"
           id="g86"><text
             id="text90"
             style="font-variant:normal;font-weight:normal;font-size:36px;font-family:Tahoma;-inkscape-font-specification:Tahoma;writing-mode:lr-tb;fill:#000000;fill-opacity:1;fill-rule:nonzero;stroke:none"
             transform="matrix(1,0,0,-1,0,586)"><tspan
               id="tspan88"
               y="0"
               x="0 21.499201 37.9944 49.989601 69.976799 88.991997 100.9872 120.4704">Actuator</tspan></text>
</g><g
           transform="matrix(0.4608586,0,0,0.4608586,523.0321,-31.73962)"
           id="g92"><text
             id="text96"
             style="font-variant:normal;font-weight:normal;font-size:36px;font-family:Tahoma;-inkscape-font-specification:Tahoma;writing-mode:lr-tb;fill:#000000;fill-opacity:1;fill-rule:nonzero;stroke:none"
             transform="matrix(1,0,0,-1,0,586)"><tspan
               id="tspan94"
               y="0"
               x="0 20.07 39.060001 59.057999 75.059998 94.554001">Sensor</tspan></text>
</g><g
           transform="matrix(0.4608586,0,0,0.4608586,402.4752,24.02427)"
           id="g98"><text
             id="text102"
             style="font-variant:normal;font-weight:normal;font-size:36px;font-family:Tahoma;-inkscape-font-specification:Tahoma;writing-mode:lr-tb;fill:#000000;fill-opacity:1;fill-rule:nonzero;stroke:none"
             transform="matrix(1,0,0,-1,0,586)"><tspan
               id="tspan100"
               y="0"
               x="0 20.0016 28.2672 48.268799 68.270401 87.264">Signal</tspan></text>
</g><g
           transform="matrix(0.4608586,0,0,0.4608586,523.0321,24.02427)"
           id="g104"><text
             id="text108"
             style="font-variant:normal;font-weight:normal;font-size:36px;font-family:Tahoma;-inkscape-font-specification:Tahoma;writing-mode:lr-tb;fill:#000000;fill-opacity:1;fill-rule:nonzero;stroke:none"
             transform="matrix(1,0,0,-1,0,586)"><tspan
               id="tspan106"
               y="0"
               x="0 17.920799 36.9216 55.922401 75.931198 95.940002 114.9408 131.4576">Feedback</tspan></text>
</g><g
           transform="matrix(0.4608586,0,0,0.4608586,318.1785,-71.37346)"
           id="g110"><text
             id="text114"
             style="font-variant:normal;font-weight:normal;font-size:36px;font-family:Tahoma;-inkscape-font-specification:Tahoma;writing-mode:lr-tb;fill:#000000;fill-opacity:1;fill-rule:nonzero;stroke:none"
             transform="matrix(1,0,0,-1,0,586)"><tspan
               id="tspan112"
               y="0"
               x="0 13.32 33.335999 53.352001 73.367996">Input</tspan></text>
</g><path
           id="path116"
           style="fill:#ffffff;fill-opacity:1;fill-rule:nonzero;stroke:none"
           d="m 458.0049,419.4409 h 58.52904 v 26.7298 H 458.0049 Z" /><g
           transform="matrix(0.4608586,0,0,0.4608586,465.0464,156.2907)"
           id="g118"><text
             id="text122"
             style="font-variant:normal;font-weight:normal;font-size:36px;font-family:Tahoma;-inkscape-font-specification:Tahoma;writing-mode:lr-tb;fill:#ff0000;fill-opacity:1;fill-rule:nonzero;stroke:none"
             transform="matrix(1,0,0,-1,0,586)"><tspan
               id="tspan120"
               y="0"
               x="0 13.5 33.515999 45.504002 64.512001 84.528">Intent</tspan></text>
</g><path
           id="path124"
           style="fill:#ffffff;fill-opacity:1;fill-rule:nonzero;stroke:none"
           d="m 333.5731,267.8185 h 116.1364 v 42.85985 H 333.5731 Z" /><g
           transform="matrix(0.4608586,0,0,0.4608586,352.3514,20.3374)"
           id="g126"><text
             id="text130"
             style="font-variant:normal;font-weight:normal;font-size:36px;font-family:Tahoma;-inkscape-font-specification:Tahoma;writing-mode:lr-tb;fill:#ff0000;fill-opacity:1;fill-rule:nonzero;stroke:none"
             transform="matrix(1,0,0,-1,0,586)"><tspan
               id="tspan128"
               y="0"
               x="0 13.5 33.515999 49.5 61.487999 74.484001 94.5 110.988 122.976 131.22 150.73199">Instruction</tspan></text>
</g><g
           transform="matrix(0.4608586,0,0,0.4608586,340.5995,3.74649)"
           id="g132"><text
             id="text136"
             style="font-variant:normal;font-weight:normal;font-size:28px;font-family:Tahoma;-inkscape-font-specification:Tahoma;writing-mode:lr-tb;fill:#ff0000;fill-opacity:1;fill-rule:nonzero;stroke:none"
             transform="matrix(1,0,0,-1,0,586)"><tspan
               id="tspan134"
               y="0"
               x="0 16.749599 31.9872 41.9888 51.990398 66.751999 79.749603 88.995201 95.496803 109.5024 124.264 133.0056 149.7552 162.75281 171.9984 178.5 193.73759 209.2272">Corrective Actions</tspan></text>
</g><path
           id="path138"
           style="fill:#ffffff;fill-opacity:1;fill-rule:nonzero;stroke:none"
           d="m 522.0642,267.8185 h 94.01515 v 42.85985 H 522.0642 Z" /><g
           transform="matrix(0.4608586,0,0,0.4608586,546.3092,20.3374)"
           id="g140"><text
             id="text144"
             style="font-variant:normal;font-weight:normal;font-size:36px;font-family:Tahoma;-inkscape-font-specification:Tahoma;writing-mode:lr-tb;fill:#ff0000;fill-opacity:1;fill-rule:nonzero;stroke:none"
             transform="matrix(1,0,0,-1,0,586)"><tspan
               id="tspan142"
               y="0"
               x="0 20.0016 32.0112 51.004799 63.0144 83.015999">Status</tspan></text>
</g><g
           transform="matrix(0.4608586,0,0,0.4608586,532.1378,3.74649)"
           id="g146"><text
             id="text150"
             style="font-variant:normal;font-weight:normal;font-size:28px;font-family:Tahoma;-inkscape-font-specification:Tahoma;writing-mode:lr-tb;fill:#ff0000;fill-opacity:1;fill-rule:nonzero;stroke:none"
             transform="matrix(1,0,0,-1,0,586)"><tspan
               id="tspan148"
               y="0"
               x="0 16.749599 29.7472 38.992802 54.482399 69.244003 75.745598 84.487198 99.976799 109.2224 123.984 133.2296 147.9912">Actual States</tspan></text>
</g><g
           transform="matrix(0.4608586,0,0,0.4608586,612.0888,-71.37346)"
           id="g152"><text
             id="text156"
             style="font-variant:normal;font-weight:normal;font-size:36px;font-family:Tahoma;-inkscape-font-specification:Tahoma;writing-mode:lr-tb;fill:#000000;fill-opacity:1;fill-rule:nonzero;stroke:none"
             transform="matrix(1,0,0,-1,0,586)"><tspan
               id="tspan154"
               y="0"
               x="0 25.4988 45.489601 57.4884 77.479202 97.470001">Output</tspan></text>
</g><path
           id="path158"
           style="fill:#00b050;fill-opacity:1;fill-rule:nonzero;stroke:none"
           d="m 422.5188,179.3336 h 125.3535 v 52.07702 H 422.5188 Z" /><g
           transform="matrix(7.257616e-5,0,0,-7.257616e-5,422.5188,231.4106)"
           id="g160"><path
             id="path162"
             style="fill:none;stroke:#00b050;stroke-width:25400;stroke-linecap:butt;stroke-linejoin:round;stroke-miterlimit:10;stroke-dasharray:none;stroke-opacity:1"
             d="M 0,0 H 1727200 V 717550 H 0 Z" /></g><g
           transform="matrix(0.4608586,0,0,0.4608586,454.5646,-71.37346)"
           id="g164"><text
             id="text168"
             style="font-variant:normal;font-weight:normal;font-size:36px;font-family:Tahoma;-inkscape-font-specification:Tahoma;writing-mode:lr-tb;fill:#ffff00;fill-opacity:1;fill-rule:nonzero;stroke:none"
             transform="matrix(1,0,0,-1,0,586)"><tspan
               id="tspan166"
               y="0"
               x="0 24.0012 42.998402 55.0116 81.748802 101.25 114.2352">Network</tspan></text>
</g><path
           id="path170"
           style="fill:#ffffff;fill-opacity:1;fill-rule:nonzero;stroke:none"
           d="m 380.5806,377.9637 h 95.85858 v 42.39899 H 380.5806 Z" /><g
           transform="matrix(0.4608586,0,0,0.4608586,407.7488,130.4826)"
           id="g172"><text
             id="text176"
             style="font-variant:normal;font-weight:normal;font-size:36px;font-family:Tahoma;-inkscape-font-specification:Tahoma;writing-mode:lr-tb;fill:#ff0000;fill-opacity:1;fill-rule:nonzero;stroke:none"
             transform="matrix(1,0,0,-1,0,586)"><tspan
               id="tspan174"
               y="0"
               x="0 19.749599 39.2472 47.512798 55.7784 72.288002">Policy</tspan></text>
</g><g
           transform="matrix(0.4608586,0,0,0.4608586,387.5862,113.8917)"
           id="g178"><text
             id="text182"
             style="font-variant:normal;font-weight:normal;font-size:28px;font-family:Tahoma;-inkscape-font-specification:Tahoma;writing-mode:lr-tb;fill:#ff0000;fill-opacity:1;fill-rule:nonzero;stroke:none"
             transform="matrix(1,0,0,-1,0,586)"><tspan
               id="tspan180"
               y="0"
               x="0 19.000799 33.745602 46.250401 52.763199 62.748001 77.492798 92.993599 101.7464 117.2472 126.504 141.24879 150.5056 165.2504">Desired States</tspan></text>
</g><path
           id="path184"
           style="fill:#4a7ebb;fill-opacity:1;fill-rule:nonzero;stroke:none"
           d="m 422.761,342.4771 -8.2928,-0.2134 0.0712,-2.7642 8.2926,0.2134 z m -11.1246,-0.3082 -8.2718,-0.6252 0.2084,-2.7573 8.2718,0.6253 z m -11.0908,-0.8817 -8.2325,-1.0199 0.34,-2.7442 8.2325,1.0199 z m -11.0308,-1.4366 -8.1758,-1.4042 0.4681,-2.7252 8.1758,1.4041 z m -10.9445,-1.9863 -7.6532,-1.6863 -0.507,-0.1357 0.7234,-2.6689 0.3785,0.1042 7.6532,1.6863 z m -10.829,-2.5453 -6.2884,-1.7044 -1.759,-0.5708 0.8559,-2.6294 1.6263,0.5314 6.2886,1.7043 z m -10.6768,-3.1312 -4.5781,-1.4904 -3.3172,-1.2791 0.9962,-2.5794 3.177,1.2292 4.5781,1.4904 z m -10.4748,-3.7658 -2.4905,-0.9619 -3.97,-1.7364 -1.2618,-0.5999 1.1886,-2.4967 1.1821,0.5635 3.8574,1.6901 2.4905,0.9619 z m -10.2191,-4.4868 -0.0181,-0.009 -3.5913,-1.8609 -3.3961,-1.9212 -0.41,-0.253 1.4573,-2.3499 0.3148,0.1965 3.3067,1.8727 3.5073,1.8193 0.0182,0.009 -1.1888,2.4966 z m -9.7655,-5.5011 -0.4308,-0.2672 -2.9755,-2.0307 -2.7504,-2.0807 -0.7196,-0.607 1.7874,-2.1098 0.6016,0.5124 2.6405,2.0017 2.8734,1.9642 0.4309,0.2672 z m -9.0324,-6.8489 -1.9083,-1.8301 -2.013,-2.2154 -1.7455,-2.2568 -0.0781,-0.1124 2.268,-1.5759 v 0 l 1.6042,2.0879 1.8783,2.0768 1.9083,1.8302 z m -7.282,-8.8828 -1.0231,-2.053 -0.8636,-2.3736 -0.5375,-2.4065 -0.1273,-1.5409 2.7577,-0.2031 0.0711,1.1541 0.4379,2.0607 0.7367,2.076 1.023,2.0531 z m -2.5357,-11.2983 0.0165,-0.3676 0.3075,-2.3538 0.5069,-2.3383 0.6982,-2.3173 0.425,-1.1099 2.5791,0.997 -0.3579,0.9153 -0.6433,2.1061 -0.4669,2.1114 -0.2862,2.1134 -0.0165,0.3676 z m 3.0852,-11.1137 0.3829,-0.816 2.5889,-4.3794 1.5659,-2.0738 2.2009,1.6739 -1.3882,1.81 -2.4642,4.1439 -0.3829,0.816 z m 6.3045,-9.576 3.6747,-3.9275 2.2697,-2.0273 1.8381,2.0657 -2.0886,1.8507 -3.6747,3.9276 z m 8.1029,-7.8622 4.6077,-3.4559 2.2296,-1.42 1.4817,2.3347 -2.0522,1.2974 -4.6078,3.4559 z m 9.172,-6.3576 0.5861,-0.3719 5.5052,-2.9492 1.4221,-0.6372 1.1249,2.5259 -1.2427,0.5495 -5.3279,2.8457 -0.586,0.3719 z m 10.0394,-5.0833 1.8624,-0.8293 5.9749,-2.1669 0.9413,2.6 -5.7913,2.0928 -1.8624,0.8294 z m 10.5915,-3.7845 3.6092,-1.0185 4.5537,-0.9309 0.5515,2.7096 -4.3542,0.8825 -3.6092,1.0185 z m 10.9885,-2.4533 5.5857,-0.6937 2.7764,-0.122 0.1168,2.7627 -2.5525,0.1033 -5.5857,0.6938 z m 1.6555,-5.187 10.5883,5.591 -10.0787,6.4647 c -0.6427,0.4123 -1.498,0.2255 -1.9103,-0.4173 -0.4122,-0.6427 -0.2253,-1.4979 0.4174,-1.9102 l 8.0836,-5.185 0.101,2.3863 -8.4926,-4.4843 c -0.6751,-0.3566 -0.9335,-1.193 -0.577,-1.8682 0.3566,-0.6752 1.193,-0.9335 1.8683,-0.577 z" /><g
           transform="matrix(0.4608586,0,0,0.4608586,203.6164,25.8677)"
           id="g186"><text
             id="text190"
             style="font-variant:normal;font-weight:normal;font-size:36px;font-family:Tahoma;-inkscape-font-specification:Tahoma;writing-mode:lr-tb;fill:#ff0000;fill-opacity:1;fill-rule:nonzero;stroke:none"
             transform="matrix(1,0,0,-1,0,586)"><tspan
               id="tspan188"
               y="0"
               x="0 21.499201 41.018398 61.0056 72.496803 80.748001 100.7352 120.7224 133.1136 152.1288 164.12399 172.3752 191.89439">Configuration</tspan></text>
</g><path
           id="path192"
           style="fill:#4a7ebb;fill-opacity:1;fill-rule:nonzero;stroke:none"
           d="m 547.9105,342.477 8.2923,-0.2294 -0.0764,-2.7641 -8.2924,0.2295 z m 11.1271,-0.3667 8.2682,-0.6721 -0.224,-2.756 -8.2683,0.6719 z m 11.0828,-1.015 7.5926,-1.0114 0.6938,-0.1264 -0.5022,-2.7192 -0.5567,0.1047 -7.5926,1.0114 z m 11.0055,-1.6399 6.1769,-1.1407 2.0276,-0.4785 -0.6375,-2.6907 -1.8922,0.4501 -6.1769,1.1406 z m 10.8952,-2.2567 4.5581,-1.0799 3.535,-1.0282 -0.7736,-2.6548 -3.3988,0.9923 -4.5582,1.0799 z m 10.7478,-2.8817 2.6964,-0.7859 5.2487,-1.8352 -0.9135,-2.6099 -5.1088,1.7904 -2.6965,0.7858 z m 10.5551,-3.5346 0.5604,-0.1963 7.1861,-2.9819 -1.0605,-2.5537 -7.0392,2.9258 -0.5604,0.1961 z m 10.321,-4.3501 1.8449,-0.8684 3.5465,-1.8144 2.0683,-1.152 -1.3463,-2.4153 -1.9819,1.1058 -3.4642,1.7741 -1.845,0.8683 z m 9.8961,-5.2497 2.0576,-1.2522 2.9969,-1.9971 1.9395,-1.4226 -1.6368,-2.2287 -1.8369,1.3508 -2.9003,1.9354 -2.0575,1.2523 z m 9.2252,-6.4182 1.2071,-0.9828 2.3619,-2.1487 2.1308,-2.1935 0.4835,-0.5682 -2.114,-1.7824 -0.3545,0.4256 -2.0079,2.0744 -2.2457,2.0485 -1.2071,0.9829 z m 7.9962,-8.1209 1.231,-1.7168 1.3742,-2.3157 1.0979,-2.3528 0.4227,-1.2367 -2.6224,-0.8771 -0.3092,0.9512 -0.9698,2.109 -1.2406,2.1108 -1.231,1.7168 z m 4.8631,-10.4569 0.1486,-0.7316 0.1791,-2.438 -0.107,-2.4183 -0.3337,-2.3817 -0.1944,-0.8517 -2.6918,0.6324 0.1488,0.6097 0.3091,2.1242 0.1103,2.0964 -0.1302,2.0767 -0.1486,0.7317 z m -1.0689,-11.5975 -0.3514,-1.0799 -0.9559,-2.3151 -1.1458,-2.2832 -1.2224,-2.0705 -2.3792,1.409 1.1319,1.9052 1.0614,2.0992 0.8806,2.1113 0.3515,1.0798 z m -5.2683,-10.1151 -0.0126,-0.0184 -3.4656,-4.2533 -2.1548,-2.1559 -1.9511,1.9594 1.9639,1.9453 3.3226,4.0616 0.0125,0.0185 z m -7.6873,-8.4615 -4.5243,-3.7506 -2.0731,-1.4543 -1.5838,2.2666 1.8921,1.3165 4.5243,3.7506 z m -8.864,-6.7887 -0.7917,-0.5532 -5.5682,-3.2969 -0.9493,-0.4771 -1.2334,2.4748 0.7754,0.3825 5.3917,3.1833 0.7916,0.5532 z m -9.784,-5.5606 -2.5271,-1.2594 -5.1411,-2.1366 -1.0596,2.554 4.9672,2.0574 2.5272,1.2595 z m -10.3468,-4.3913 -5.0168,-1.6921 -2.9926,-0.7902 -0.7031,2.6743 2.812,0.736 5.0168,1.6921 z m -10.6837,-3.1854 -1.111,-0.2921 -6.9463,-1.3208 -0.2697,-0.0348 -0.3179,2.7468 0.0724,0.005 6.7584,1.2783 1.111,0.2921 0.7031,-2.6743 z m -11.0738,-1.9656 -4.0442,-0.4679 -4.3255,-0.1744 -0.1089,2.763 4.1165,0.1582 4.0442,0.468 z m -0.6543,-4.9927 -10.5722,5.6215 10.0972,6.4357 c 0.6439,0.4104 1.4987,0.2211 1.9091,-0.4228 0.4103,-0.6439 0.2211,-1.4986 -0.4228,-1.909 l -8.0986,-5.1618 -0.094,2.3867 8.4794,-4.5088 c 0.6743,-0.3585 0.9302,-1.1957 0.5717,-1.8699 -0.3585,-0.6741 -1.1957,-0.9301 -1.8698,-0.5716 z" /><g
           transform="matrix(0.4608586,0,0,0.4608586,658.9093,25.8677)"
           id="g194"><text
             id="text198"
             style="font-variant:normal;font-weight:normal;font-size:36px;font-family:Tahoma;-inkscape-font-specification:Tahoma;writing-mode:lr-tb;fill:#ff0000;fill-opacity:1;fill-rule:nonzero;stroke:none"
             transform="matrix(1,0,0,-1,0,586)"><tspan
               id="tspan196"
               y="0"
               x="0 17.3304 36.316799 44.575199 63.5616 93.816002 112.8024 124.8048 137.8152">Telemetry</tspan></text>
</g><path
           id="path200"
           style="fill:#53b151;fill-opacity:1;fill-rule:evenodd;stroke:none"
           d="m 513.8195,275.2853 c 0.233,13.0091 -11.6715,23.7197 -26.5893,23.9228 -11.6649,0.1588 -22.1288,-6.2303 -25.9477,-15.8434 l -5.6995,-0.0178 6.8986,-7.7695 10.3499,7.8232 -5.6099,-0.0175 c 5.0807,9.0897 17.9689,12.9975 28.7864,8.7283 7.7075,-3.0417 12.5755,-9.5988 12.4376,-16.7529 z" /><path
           id="path202"
           style="fill:#53b151;fill-opacity:1;fill-rule:evenodd;stroke:none"
           d="m 458.6038,273.4898 c -0.2327,-13.2865 11.7937,-24.2237 26.8617,-24.4289 12.5282,-0.1706 23.5779,7.2042 26.7937,17.8824 l 5.4187,0.3417 -7.5953,7.3592 -9.7536,-8.4533 5.3169,0.3353 c -4.293,-9.2546 -16.6195,-13.8056 -27.5322,-10.1649 -8.2367,2.748 -13.5992,9.5408 -13.4572,17.0461 z" /><path
           id="path204"
           style="fill:#53b151;fill-opacity:1;fill-rule:evenodd;stroke:none"
           d="m 304.8387,277.7745 c 0.0993,7.5467 -5.8348,13.7464 -13.2544,13.8474 -6.0283,0.0821 -11.3722,-3.9304 -13.0709,-9.8143 l -3.3134,-0.0103 4.3018,-3.877 5.5353,3.9077 -3.2907,-0.0103 c 2.0857,5.4526 8.1005,8.1444 13.4346,6.0124 4.0236,-1.6083 6.6503,-5.598 6.5927,-10.0139 z" /><path
           id="path206"
           style="fill:#53b151;fill-opacity:1;fill-rule:evenodd;stroke:none"
           d="m 277.3293,276.7601 c -0.1007,-7.6462 5.9131,-13.9277 13.432,-14.03 6.4287,-0.0876 12.0415,4.4099 13.4616,10.7865 l 3.1186,0.1967 -4.5179,3.6107 -5.2996,-4.2299 3.0898,0.1949 c -1.7746,-5.4615 -7.5427,-8.4177 -12.8833,-6.6031 -4.2132,1.4316 -7.0351,5.488 -6.976,10.0276 z" /><path
           id="path208"
           style="fill:#53b151;fill-opacity:1;fill-rule:evenodd;stroke:none"
           d="m 690.6237,279.39 c 0.098,7.4451 -5.7549,13.5613 -13.0728,13.6609 -5.946,0.081 -11.2169,-3.8779 -12.8921,-9.6829 l -3.268,-0.0101 4.243,-3.824 5.4593,3.8541 -3.2458,-0.01 c 2.0566,5.3797 7.9888,8.0361 13.25,5.9332 3.969,-1.5865 6.5602,-5.523 6.5035,-9.8801 z" /><path
           id="path210"
           style="fill:#53b151;fill-opacity:1;fill-rule:evenodd;stroke:none"
           d="m 663.4848,278.1402 c -0.0976,-7.6705 5.8352,-13.9706 13.2511,-14.0715 6.3571,-0.0866 11.9018,4.4496 13.2844,10.868 l 3.0803,0.1943 -4.4698,3.5654 -5.2133,-4.1761 3.0549,0.1927 c -1.7133,-5.5218 -7.3822,-8.5455 -12.6618,-6.7537 -4.1888,1.4216 -7.0048,5.5296 -6.9475,10.1348 z" /></g></g></g></svg>